<?xml version="1.0" encoding="UTF-8"?>
<svg width="56px" height="56px" viewBox="0 0 56 56" version="1.1" xmlns="http://www.w3.org/2000/svg" xmlns:xlink="http://www.w3.org/1999/xlink">
    <!-- Generator: Sketch 51.3 (57544) - http://www.bohemiancoding.com/sketch -->
    <title>car-dump-truck</title>
    <desc>Created with Sketch.</desc>
    <defs>
        <path d="M20.2446296,10.604 L20.1758886,10.937 L22.9322137,11.499 L23,11.166 C23,11.166 22.8835221,10.706 21.8323569,10.462 L21.9030074,10.122 L21.9488348,9.896 L21.951699,9.885 L19.9925791,9.486 L19.9925791,8.845 C19.9925791,8.514 19.7204791,8.241 19.3863212,8.241 L19.3710454,8.241 L19.3710454,6.858 C19.3710454,6.774 19.3538602,6.693 19.3242633,6.62 L19.3242633,3.621 C19.3252181,2.12 17.6066918,0 16.057154,0 L15.8337456,0 L7.94284598,0 L7.89797335,0 L7.71848284,0 C7.70702599,0 7.69556915,0 7.68315757,0.001 L7.68029336,0.02 C6.20522501,0.237 4.67478193,2.205 4.67478193,3.622 L4.67478193,6.62 C4.64709456,6.693 4.6299093,6.774 4.6299093,6.858 L4.6299093,8.241 L4.61367877,8.241 C4.28047563,8.241 4.00742091,8.513 4.00742091,8.845 L4.00742091,9.486 L2.048301,9.885 L2.05116521,9.896 L2.09794732,10.122 L2.1676431,10.462 C1.11743263,10.706 1,11.166 1,11.166 L1.06874105,11.499 L3.82411144,10.937 L3.75632513,10.604 C3.75632513,10.604 3.46703988,10.227 2.40441783,10.414 L2.33567678,10.073 L4.00742091,9.732 L4.00742091,16.86 C4.00742091,17.192 4.28047563,17.464 4.61367877,17.464 L4.87241245,17.464 L5.86629345,17.464 L5.86629345,19.275 L4.18022827,19.275 C4.15635985,19.275 4.13249143,19.275 4.10957775,19.277 L4.10957775,31.617 C3.77351039,31.628 3.50331988,31.904 3.50331988,32.24 L3.50331988,36.151 C3.50331988,36.487 3.77351039,36.763 4.10957775,36.775 L4.10957775,39.918 C3.77351039,39.929 3.50331988,40.205 3.50331988,40.542 L3.50331988,44.452 C3.50331988,44.789 3.77351039,45.065 4.10957775,45.076 L4.10957775,47.662 C4.13249143,47.663 4.15635985,47.664 4.18022827,47.664 L5.11587033,47.664 C5.12923664,47.85 5.28676822,48 5.47771558,48 L7.75762705,48 C7.9485744,48 8.10706071,47.85 8.12042703,47.662 L15.8814824,47.662 C15.8929393,47.85 16.0514256,48 16.242373,48 L18.5222844,48 C18.7141865,48 18.8717181,47.85 18.8850844,47.662 L19.8197717,47.662 C19.8436402,47.662 19.8675086,47.661 19.891377,47.66 L19.891377,45.074 C20.2264896,45.063 20.4966801,44.787 20.4966801,44.45 L20.4966801,40.54 C20.4966801,40.203 20.2264896,39.927 19.891377,39.916 L19.891377,36.773 C20.2264896,36.761 20.4966801,36.485 20.4966801,36.149 L20.4966801,32.238 C20.4966801,31.902 20.2264896,31.626 19.891377,31.615 L19.891377,19.275 C19.8675086,19.273 19.8436402,19.273 19.8197717,19.273 L18.1337065,19.273 L18.1337065,17.462 L19.1275876,17.462 L19.3863212,17.462 C19.7204791,17.462 19.9925791,17.191 19.9925791,16.858 L19.9925791,9.731 L21.665278,10.072 L21.5955822,10.413 C20.5339149,10.227 20.2446296,10.604 20.2446296,10.604 Z" id="path-1"></path>
        <filter x="-27.3%" y="-12.5%" width="154.5%" height="125.0%" filterUnits="objectBoundingBox" id="filter-2">
            <feOffset dx="0" dy="0" in="SourceAlpha" result="shadowOffsetOuter1"></feOffset>
            <feGaussianBlur stdDeviation="2" in="shadowOffsetOuter1" result="shadowBlurOuter1"></feGaussianBlur>
            <feColorMatrix values="0 0 0 0 0   0 0 0 0 0   0 0 0 0 0  0 0 0 0.5 0" type="matrix" in="shadowBlurOuter1"></feColorMatrix>
        </filter>
        <linearGradient x1="49.9936488%" y1="100%" x2="49.9936488%" y2="-0.0285714286%" id="linearGradient-3">
            <stop stop-color="#FF0800" offset="6.67%"></stop>
            <stop stop-color="#FF3F00" offset="82.42%"></stop>
        </linearGradient>
        <linearGradient x1="50.0063512%" y1="100%" x2="50.0063512%" y2="-0.0285714286%" id="linearGradient-4">
            <stop stop-color="#FF0800" offset="6.67%"></stop>
            <stop stop-color="#FF3F00" offset="82.42%"></stop>
        </linearGradient>
        <linearGradient x1="99.9986606%" y1="50.0010844%" x2="0.0013394053%" y2="50.0010844%" id="linearGradient-5">
            <stop stop-color="#CCCCCC" offset="0%"></stop>
            <stop stop-color="#808080" offset="100%"></stop>
        </linearGradient>
        <linearGradient x1="0.0013394053%" y1="50.0010844%" x2="99.9986606%" y2="50.0010844%" id="linearGradient-6">
            <stop stop-color="#D9D9D9" offset="0%"></stop>
            <stop stop-color="#C9C9C9" offset="64.9408418%"></stop>
            <stop stop-color="#9D9D9D" offset="100%"></stop>
        </linearGradient>
        <linearGradient x1="4.5709847%" y1="64.9784833%" x2="102.150376%" y2="33.6580589%" id="linearGradient-7">
            <stop stop-color="#E8E8E8" offset="0%"></stop>
            <stop stop-color="#C9C9C9" offset="63.03%"></stop>
            <stop stop-color="#9D9D9D" offset="100%"></stop>
        </linearGradient>
        <linearGradient x1="95.3909898%" y1="65.0005923%" x2="-2.14298238%" y2="33.6947464%" id="linearGradient-8">
            <stop stop-color="#E8E8E8" offset="0%"></stop>
            <stop stop-color="#C9C9C9" offset="63.03%"></stop>
            <stop stop-color="#9D9D9D" offset="100%"></stop>
        </linearGradient>
        <linearGradient x1="50.1145038%" y1="99.9503106%" x2="50.1145038%" y2="-0.0124223602%" id="linearGradient-9">
            <stop stop-color="#FF1F00" offset="0%"></stop>
            <stop stop-color="#FF6900" offset="100%"></stop>
        </linearGradient>
        <linearGradient x1="49.8269896%" y1="99.9773756%" x2="49.8269896%" y2="-0.0904977376%" id="linearGradient-10">
            <stop stop-color="#FF3F00" offset="6.67%"></stop>
            <stop stop-color="#FF6900" offset="100%"></stop>
        </linearGradient>
        <linearGradient x1="50.0952381%" y1="99.9503106%" x2="50.0952381%" y2="-0.0124223602%" id="linearGradient-11">
            <stop stop-color="#FF1F00" offset="0%"></stop>
            <stop stop-color="#FF6900" offset="100%"></stop>
        </linearGradient>
        <linearGradient x1="50.1730104%" y1="99.9773756%" x2="50.1730104%" y2="-0.0904977376%" id="linearGradient-12">
            <stop stop-color="#FF3F00" offset="6.67%"></stop>
            <stop stop-color="#FF6900" offset="100%"></stop>
        </linearGradient>
        <linearGradient x1="50.0571429%" y1="99.9751553%" x2="50.0571429%" y2="0.0124223602%" id="linearGradient-13">
            <stop stop-color="#FF1F00" offset="0%"></stop>
            <stop stop-color="#FF6900" offset="100%"></stop>
        </linearGradient>
        <linearGradient x1="50.1041667%" y1="100.022624%" x2="50.1041667%" y2="-0.0452488688%" id="linearGradient-14">
            <stop stop-color="#FF3F00" offset="6.67%"></stop>
            <stop stop-color="#FF6900" offset="100%"></stop>
        </linearGradient>
        <linearGradient x1="49.9428571%" y1="99.9751553%" x2="49.9428571%" y2="0.0124223602%" id="linearGradient-15">
            <stop stop-color="#FF1F00" offset="0%"></stop>
            <stop stop-color="#FF6900" offset="100%"></stop>
        </linearGradient>
        <linearGradient x1="49.8961938%" y1="100.022624%" x2="49.8961938%" y2="-0.0452488688%" id="linearGradient-16">
            <stop stop-color="#FF3F00" offset="6.67%"></stop>
            <stop stop-color="#FF6900" offset="100%"></stop>
        </linearGradient>
        <linearGradient x1="50.0952381%" y1="99.9751553%" x2="50.0952381%" y2="0.0124223602%" id="linearGradient-17">
            <stop stop-color="#FF1F00" offset="0%"></stop>
            <stop stop-color="#FF6900" offset="100%"></stop>
        </linearGradient>
        <linearGradient x1="50.174216%" y1="100.022624%" x2="50.174216%" y2="-0.0452488688%" id="linearGradient-18">
            <stop stop-color="#FF3F00" offset="6.67%"></stop>
            <stop stop-color="#FF6900" offset="100%"></stop>
        </linearGradient>
    </defs>
    <g id="car-dump-truck" stroke="none" stroke-width="1" fill="none" fill-rule="evenodd">
        <g id="Group" transform="translate(16.000000, 4.000000)" fill-rule="nonzero">
            <g id="Shape" opacity="0.4">
                <use fill="black" fill-opacity="1" filter="url(#filter-2)" xlink:href="#path-1"></use>
                <use fill="#000000" xlink:href="#path-1"></use>
            </g>
            <g>
                <g transform="translate(4.000000, 46.000000)" id="Shape">
                    <path d="M3.937,1.638 C3.937,1.837 3.765,2 3.556,2 L1.169,2 C0.959,2 0.788,1.837 0.788,1.638 L0.788,0.962 C0.788,0.763 0.959,0.6 1.169,0.6 L3.556,0.6 C3.765,0.6 3.937,0.763 3.937,0.962 L3.937,1.638 Z" fill="url(#linearGradient-3)"></path>
                    <path d="M15.212,1.638 C15.212,1.837 15.041,2 14.831,2 L12.444,2 C12.234,2 12.063,1.837 12.063,1.638 L12.063,0.962 C12.063,0.763 12.234,0.6 12.444,0.6 L14.831,0.6 C15.041,0.6 15.212,0.763 15.212,0.962 L15.212,1.638 Z" fill="url(#linearGradient-4)"></path>
                </g>
                <g transform="translate(3.000000, 31.000000)" fill="#000000" id="Shape">
                    <g>
                        <path d="M1.982,8.915 C2.342,8.915 2.639,9.196 2.639,9.54 L2.639,13.45 C2.639,13.794 2.342,14.074 1.982,14.074 L0.755,14.074 C0.395,14.074 0.099,13.794 0.099,13.45 L0.099,9.54 C0.099,9.196 0.395,8.915 0.755,8.915 L1.982,8.915 Z"></path>
                        <path d="M1.982,0.614 C2.342,0.614 2.639,0.894 2.639,1.238 L2.639,5.149 C2.639,5.492 2.342,5.773 1.982,5.773 L0.755,5.773 C0.395,5.773 0.099,5.492 0.099,5.149 L0.099,1.238 C0.099,0.894 0.395,0.614 0.755,0.614 L1.982,0.614 Z"></path>
                    </g>
                    <g transform="translate(15.000000, 0.000000)">
                        <path d="M2.243,8.915 C2.604,8.915 2.9,9.196 2.9,9.54 L2.9,13.45 C2.9,13.794 2.604,14.074 2.243,14.074 L1.017,14.074 C0.656,14.074 0.361,13.794 0.361,13.45 L0.361,9.54 C0.361,9.196 0.656,8.915 1.017,8.915 L2.243,8.915 Z"></path>
                        <path d="M2.243,0.614 C2.604,0.614 2.9,0.894 2.9,1.238 L2.9,5.149 C2.9,5.492 2.604,5.773 2.243,5.773 L1.017,5.773 C0.656,5.773 0.361,5.492 0.361,5.149 L0.361,1.238 C0.361,0.894 0.656,0.614 1.017,0.614 L2.243,0.614 Z"></path>
                    </g>
                </g>
                <path d="M5.575,9.794 L5.575,20.338 C5.595,20.338 5.614,20.338 5.634,20.338 L18.367,20.338 C18.387,20.338 18.405,20.338 18.425,20.338 L18.425,9.794 C18.405,9.794 18.387,9.793 18.367,9.793 L5.634,9.793 C5.614,9.793 5.595,9.794 5.575,9.794 Z" id="Shape" fill="#282828"></path>
                <path d="M3.734,19.275 L3.734,47.66 C3.758,47.661 3.784,47.662 3.809,47.662 L20.19,47.662 C20.215,47.662 20.241,47.661 20.265,47.66 L20.265,19.275 C20.241,19.273 20.215,19.273 20.19,19.273 L3.81,19.273 C3.784,19.273 3.759,19.273 3.734,19.275 Z" id="Shape" fill="#B5B5B5"></path>
                <rect id="Rectangle-path" fill="url(#linearGradient-5)" x="4.369" y="19.877" width="15.262" height="27.182"></rect>
                <path d="M19.673,15.508 L19.673,3.621 C19.673,2.12 17.872,0 16.249,0 L7.751,0 C6.128,0 4.327,2.12 4.327,3.621 L4.327,15.508 L19.673,15.508 Z" id="Shape" fill="url(#linearGradient-6)"></path>
                <g transform="translate(0.000000, 9.000000)" id="Shape">
                    <g>
                        <polygon fill="url(#linearGradient-7)" points="3.684 0.475 1.577 0.885 1.579 0.896 1.628 1.121 1.785 1.851 2.034 1.802 1.877 1.072 3.734 0.711"></polygon>
                        <path d="M3.437,1.937 L0.551,2.499 L0.48,2.166 C0.48,2.166 0.611,1.673 1.826,1.436 C3.041,1.2 3.365,1.605 3.365,1.605 L3.437,1.937 Z" fill="#E6E6E6"></path>
                    </g>
                    <g transform="translate(20.000000, 0.000000)">
                        <polygon fill="url(#linearGradient-8)" points="0.316 0.475 2.423 0.885 2.42 0.896 2.372 1.121 2.215 1.851 1.966 1.802 2.123 1.072 0.266 0.711"></polygon>
                        <path d="M0.563,1.937 L3.449,2.499 L3.52,2.166 C3.52,2.166 3.389,1.673 2.174,1.436 C0.959,1.2 0.634,1.605 0.634,1.605 L0.563,1.937 Z" fill="#E6E6E6"></path>
                    </g>
                </g>
                <path d="M5.864,8.822 C5.864,8.822 6.708,10.486 12,10.486 C17.292,10.486 18.136,8.822 18.136,8.822 L16.533,0.067 C16.36,0.023 16.187,0 16.015,0 L7.517,0 C7.503,0 7.492,0 7.479,0.001 L5.864,8.822 Z" id="Shape" fill="#F0F0F0"></path>
                <path d="M17.83,8.822 L16.3,0.021 C16.205,0.008 16.109,0 16.015,0 L7.704,0 L6.169,8.822 C6.169,8.822 6.972,10.486 12,10.486 C17.028,10.486 17.83,8.822 17.83,8.822 Z" id="Shape" fill="url(#linearGradient-6)"></path>
                <path d="M19.721,6.858 C19.721,6.527 19.457,6.255 19.136,6.255 L4.864,6.255 C4.542,6.255 4.278,6.526 4.278,6.858 L4.278,14.873 C4.278,15.205 4.542,15.477 4.864,15.477 L19.135,15.477 C19.456,15.477 19.72,15.206 19.72,14.873 L19.72,6.858 L19.721,6.858 Z" id="Shape" fill="#F0F0F0"></path>
                <g transform="translate(4.000000, 4.000000)" id="Rectangle-path">
                    <g>
                        <rect fill="url(#linearGradient-9)" x="0.652" y="0.087" width="1" height="1"></rect>
                        <rect fill="url(#linearGradient-10)" x="0.771" y="0.269" width="1" height="1"></rect>
                    </g>
                    <g transform="translate(14.000000, 0.000000)">
                        <rect fill="url(#linearGradient-11)" x="0.822" y="0.087" width="1" height="1"></rect>
                        <rect fill="url(#linearGradient-12)" x="0.94" y="0.269" width="1" height="1"></rect>
                    </g>
                </g>
                <path d="M20.372,8.845 C20.372,8.514 20.086,8.241 19.736,8.241 L4.263,8.241 C3.914,8.241 3.628,8.513 3.628,8.845 L3.628,16.86 C3.628,17.192 3.914,17.464 4.263,17.464 L19.737,17.464 C20.087,17.464 20.373,17.193 20.373,16.86 L20.373,8.845 L20.372,8.845 Z" id="Shape" fill="url(#linearGradient-6)"></path>
                <path d="M4.534,17.463 L19.466,17.463 L19.466,8.244 C19.444,8.242 19.422,8.241 19.399,8.241 L4.601,8.241 C4.58,8.241 4.556,8.242 4.535,8.244 L4.535,17.463 L4.534,17.463 Z" id="Shape" fill="url(#linearGradient-6)"></path>
                <g transform="translate(7.000000, 11.000000)" id="Shape">
                    <path d="M4.904,1.014 L4.904,5.09 C4.904,5.137 4.973,5.178 5.077,5.202 C5.037,5.207 4.995,5.209 4.95,5.209 C4.729,5.209 4.549,5.148 4.549,5.073 L4.549,0.996 C4.549,0.922 4.73,0.86 4.95,0.86 C5.034,0.86 5.112,0.869 5.178,0.884 C5.019,0.903 4.904,0.954 4.904,1.014 Z" fill="#696969"></path>
                    <path d="M5.087,5.227 C5.012,5.227 4.942,5.219 4.882,5.207 C4.904,5.209 4.927,5.209 4.95,5.209 C4.995,5.209 5.037,5.207 5.077,5.202 C4.973,5.178 4.904,5.137 4.904,5.09 L4.904,1.014 C4.904,0.954 5.018,0.904 5.177,0.885 C5.17,0.883 5.162,0.881 5.155,0.88 C5.343,0.891 5.487,0.946 5.487,1.014 L5.487,5.09 C5.487,5.166 5.307,5.227 5.087,5.227 Z" fill="#F0F0F0"></path>
                    <path d="M0.696,1.014 L0.696,5.09 C0.696,5.137 0.764,5.178 0.868,5.202 C0.828,5.207 0.786,5.209 0.741,5.209 C0.52,5.209 0.34,5.148 0.34,5.073 L0.34,0.996 C0.34,0.922 0.521,0.86 0.741,0.86 C0.825,0.86 0.903,0.869 0.969,0.884 C0.811,0.903 0.696,0.954 0.696,1.014 Z" fill="#696969"></path>
                    <path d="M0.878,5.227 C0.804,5.227 0.733,5.219 0.673,5.207 C0.696,5.209 0.718,5.209 0.741,5.209 C0.786,5.209 0.828,5.207 0.868,5.202 C0.764,5.178 0.696,5.137 0.696,5.09 L0.696,1.014 C0.696,0.954 0.81,0.904 0.968,0.885 C0.961,0.883 0.953,0.881 0.946,0.88 C1.134,0.891 1.278,0.946 1.278,1.014 L1.278,5.09 C1.278,5.166 1.099,5.227 0.878,5.227 Z" fill="#F0F0F0"></path>
                    <path d="M9.077,1.014 L9.077,5.09 C9.077,5.137 9.145,5.178 9.249,5.202 C9.21,5.207 9.167,5.209 9.122,5.209 C8.902,5.209 8.722,5.148 8.722,5.073 L8.722,0.996 C8.722,0.922 8.903,0.86 9.122,0.86 C9.207,0.86 9.285,0.869 9.351,0.884 C9.191,0.903 9.077,0.954 9.077,1.014 Z" fill="#696969"></path>
                    <path d="M9.259,5.227 C9.185,5.227 9.114,5.219 9.055,5.207 C9.077,5.209 9.1,5.209 9.122,5.209 C9.167,5.209 9.21,5.207 9.249,5.202 C9.145,5.178 9.077,5.137 9.077,5.09 L9.077,1.014 C9.077,0.954 9.191,0.904 9.35,0.885 C9.342,0.883 9.334,0.881 9.327,0.88 C9.515,0.891 9.66,0.946 9.66,1.014 L9.66,5.09 C9.66,5.166 9.479,5.227 9.259,5.227 Z" fill="#F0F0F0"></path>
                </g>
                <g transform="translate(9.000000, 9.000000)" id="Rectangle-path">
                    <g>
                        <rect fill="url(#linearGradient-13)" x="0.788" y="0.163" width="1" height="1"></rect>
                        <rect fill="url(#linearGradient-14)" x="0.906" y="0.344" width="1" height="1"></rect>
                    </g>
                    <g transform="translate(4.000000, 0.000000)">
                        <rect fill="url(#linearGradient-15)" x="0.687" y="0.163" width="1" height="1"></rect>
                        <rect fill="url(#linearGradient-16)" x="0.805" y="0.344" width="1" height="1"></rect>
                    </g>
                    <rect fill="url(#linearGradient-17)" x="2.737" y="0.163" width="1" height="1"></rect>
                    <rect fill="url(#linearGradient-18)" x="2.856" y="0.344" width="1" height="1"></rect>
                </g>
            </g>
        </g>
    </g>
</svg>