<?xml version="1.0" encoding="UTF-8"?>
<svg width="56px" height="56px" viewBox="0 0 56 56" version="1.1" xmlns="http://www.w3.org/2000/svg" xmlns:xlink="http://www.w3.org/1999/xlink">
    <!-- Generator: Sketch 51.3 (57544) - http://www.bohemiancoding.com/sketch -->
    <title>car-police</title>
    <desc>Created with Sketch.</desc>
    <defs>
        <linearGradient x1="0.000517464424%" y1="49.9991667%" x2="99.9963777%" y2="49.9991667%" id="linearGradient-1">
            <stop stop-color="#4A4A4A" offset="0%"></stop>
            <stop stop-color="#000000" offset="99.39%"></stop>
        </linearGradient>
        <path d="M21.57,43.586 C21.57,46.182 19.897,48.307 17.853,48.307 L5.962,48.307 C3.918,48.307 2.246,46.182 2.246,43.586 L2.246,4.672 C2.246,2.074 4.76,0.307 6.804,0.307 L17.012,0.307 C19.057,0.307 21.571,2.075 21.571,4.672 L21.571,43.586 L21.57,43.586 Z" id="path-2"></path>
        <filter x="-31.0%" y="-12.5%" width="162.1%" height="125.0%" filterUnits="objectBoundingBox" id="filter-3">
            <feOffset dx="0" dy="0" in="SourceAlpha" result="shadowOffsetOuter1"></feOffset>
            <feGaussianBlur stdDeviation="2" in="shadowOffsetOuter1" result="shadowBlurOuter1"></feGaussianBlur>
            <feColorMatrix values="0 0 0 0 0   0 0 0 0 0   0 0 0 0 0  0 0 0 0.5 0" type="matrix" in="shadowBlurOuter1"></feColorMatrix>
        </filter>
        <linearGradient x1="0.000517491203%" y1="50.0018983%" x2="100.001552%" y2="50.0018983%" id="linearGradient-4">
            <stop stop-color="#F2F2F2" offset="0%"></stop>
            <stop stop-color="#D6D6D6" offset="99.39%"></stop>
        </linearGradient>
        <linearGradient x1="0.0177116543%" y1="50.0193803%" x2="99.9929153%" y2="50.0193803%" id="linearGradient-5">
            <stop stop-color="#1A1A1A" offset="0%"></stop>
            <stop stop-color="#000000" offset="99.39%"></stop>
        </linearGradient>
        <linearGradient x1="-0.0106307583%" y1="50.0193803%" x2="99.9645641%" y2="50.0193803%" id="linearGradient-6">
            <stop stop-color="#1A1A1A" offset="0%"></stop>
            <stop stop-color="#000000" offset="99.39%"></stop>
        </linearGradient>
        <linearGradient x1="49.9854015%" y1="100.030769%" x2="49.9854015%" y2="0.0131868132%" id="linearGradient-7">
            <stop stop-color="#B0B0B0" offset="0.61%"></stop>
            <stop stop-color="#F2F2F2" offset="100%"></stop>
        </linearGradient>
        <linearGradient x1="49.9976695%" y1="99.986819%" x2="49.9976695%" y2="0.0131810193%" id="linearGradient-8">
            <stop stop-color="#940000" offset="0%"></stop>
            <stop stop-color="#A00A0A" offset="4.9%"></stop>
            <stop stop-color="#D33535" offset="27.18%"></stop>
            <stop stop-color="#F34F4F" offset="44.01%"></stop>
            <stop stop-color="#FF5959" offset="53.33%"></stop>
            <stop stop-color="#FF5151" offset="61.72%"></stop>
            <stop stop-color="#FF3C3C" offset="74.46%"></stop>
            <stop stop-color="#FF1A1A" offset="89.87%"></stop>
            <stop stop-color="#FF0000" offset="100%"></stop>
        </linearGradient>
        <linearGradient x1="49.979021%" y1="100.030769%" x2="49.979021%" y2="0.0131868132%" id="linearGradient-9">
            <stop stop-color="#0025DB" offset="0%"></stop>
            <stop stop-color="#2D4EED" offset="23.06%"></stop>
            <stop stop-color="#4D6AFA" offset="42.54%"></stop>
            <stop stop-color="#5975FF" offset="53.33%"></stop>
            <stop stop-color="#516FFF" offset="61.72%"></stop>
            <stop stop-color="#3C5DFF" offset="74.46%"></stop>
            <stop stop-color="#1A41FF" offset="89.87%"></stop>
            <stop stop-color="#002BFF" offset="100%"></stop>
        </linearGradient>
    </defs>
    <g id="car-police" stroke="none" stroke-width="1" fill="none" fill-rule="evenodd">
        <g id="Group" transform="translate(16.000000, 3.000000)" fill-rule="nonzero">
            <g id="Shape">
                <use fill="black" fill-opacity="1" filter="url(#filter-3)" xlink:href="#path-2"></use>
                <use fill="url(#linearGradient-1)" xlink:href="#path-2"></use>
            </g>
            <rect id="Rectangle-path" fill="url(#linearGradient-4)" x="2.246" y="15.195" width="19.324" height="21.072"></rect>
            <path d="M6.804,46.811 C5.014,46.743 3.57,43.942 3.569,40.51 L3.569,36.268 L20.248,36.268 L20.248,40.508 C20.248,43.942 18.804,46.742 17.013,46.811 L6.804,46.811 Z M16.701,46.285 L16.944,46.285 C18.594,46.285 19.937,43.693 19.937,40.508 L19.937,36.795 L3.879,36.795 L3.879,40.51 C3.879,43.694 5.222,46.285 6.871,46.285 L7.114,46.285 L16.701,46.285 Z" id="Shape" fill="#F0F0F0"></path>
            <path d="M17.012,0.597 C18.802,0.694 20.247,4.608 20.247,9.406 L20.247,15.336 L3.568,15.336 L3.568,9.408 C3.568,4.609 5.013,0.694 6.803,0.597 L17.012,0.597 Z M7.114,1.332 L6.872,1.332 C5.221,1.332 3.879,4.955 3.879,9.408 L3.879,14.6 L19.938,14.6 L19.938,9.406 C19.938,4.954 18.594,1.332 16.945,1.332 L16.703,1.332 L7.114,1.332 Z" id="Shape" fill="#F0F0F0"></path>
            <path d="M20.284,15.195 C20.284,15.195 19.133,14.242 11.908,14.242 C4.683,14.242 3.531,15.195 3.531,15.195 L6.065,21.007 L17.751,21.007 L20.284,15.195 Z" id="Shape" fill="#000000"></path>
            <path d="M3.531,36.307 C3.531,36.307 4.683,38.348 11.908,38.348 C19.133,38.348 20.284,36.307 20.284,36.307 L17.751,33.95 L6.065,33.95 L3.531,36.307 Z" id="Shape" fill="#000000"></path>
            <g transform="translate(18.000000, 17.000000)" fill="#000000" id="Shape">
                <polygon points="2.284 10.199 2.284 0.094 0.246 4.803 0.246 10.199"></polygon>
                <polygon points="0.246 10.973 0.246 16.262 2.284 18.32 2.284 10.973"></polygon>
            </g>
            <g transform="translate(3.000000, 17.000000)" fill="#000000" id="Shape">
                <polygon points="0.531 10.973 0.531 18.32 2.569 16.262 2.569 10.973"></polygon>
                <polygon points="2.569 10.199 2.569 4.803 0.531 0.094 0.531 10.199"></polygon>
            </g>
            <path d="M17.751,21.008 C6.498,21.008 3.531,15.196 3.531,15.196 L6.065,21.008 L17.751,21.008 Z" id="Shape" fill="#363636"></path>
            <path d="M17.854,47.408 L17.012,47.447 L5.962,47.408 C3.918,47.408 2.246,45.283 2.246,42.685 L2.246,43.521 C2.246,46.119 3.918,48.244 5.962,48.244 L17.012,48.24 L17.854,48.244 C19.898,48.244 21.571,46.119 21.571,43.521 L21.571,42.685 C21.57,45.283 19.897,47.408 17.854,47.408 Z" id="Shape" fill="#000000"></path>
            <path d="M17.854,47.107 L17.012,47.148 L5.962,47.107 C3.918,47.107 2.246,44.982 2.246,42.386 L2.246,43.222 C2.246,45.818 3.918,47.943 5.962,47.943 L17.012,47.939 L17.854,47.943 C19.898,47.943 21.571,45.818 21.571,43.222 L21.571,42.384 C21.57,44.982 19.897,47.107 17.854,47.107 Z" id="Shape" fill="#000000"></path>
            <path d="M17.854,47.266 L17.012,47.305 L5.962,47.266 C3.918,47.266 2.246,45.141 2.246,42.545 L2.246,43.379 C2.246,45.977 3.918,48.102 5.962,48.102 L17.012,48.098 L17.854,48.102 C19.898,48.102 21.571,45.977 21.571,43.379 L21.571,42.543 C21.57,45.141 19.897,47.266 17.854,47.266 Z" id="Shape" fill="#FF0000"></path>
            <g transform="translate(0.000000, 15.000000)" id="Shape">
                <path d="M3.594,1.527 L0.872,2.545 L0.771,2.111 C0.771,2.111 0.907,0.966 1.899,0.595 C2.891,0.224 3.493,1.095 3.493,1.095 L3.594,1.527 Z" fill="url(#linearGradient-5)"></path>
                <path d="M20.222,1.527 L22.944,2.545 L23.044,2.111 C23.044,2.111 22.909,0.966 21.917,0.595 C20.925,0.224 20.323,1.095 20.323,1.095 L20.222,1.527 Z" fill="url(#linearGradient-6)"></path>
            </g>
            <path d="M16.328,26.385 L13.284,26.385 L11.23,26.385 L8.186,26.385 C7.499,26.385 6.939,26.897 6.939,27.524 C6.939,28.149 7.5,28.661 8.186,28.661 L11.23,28.661 L13.284,28.661 L16.328,28.661 C17.015,28.661 17.575,28.149 17.575,27.524 C17.575,26.896 17.015,26.385 16.328,26.385 Z" id="Shape" fill="#B5B5B5"></path>
            <g transform="translate(6.000000, 26.000000)">
                <rect id="Rectangle-path" fill="url(#linearGradient-7)" x="4.881" y="0.195" width="2.055" height="2.275"></rect>
                <path d="M1.837,0.195 C1.15,0.195 0.59,0.707 0.59,1.332 C0.59,1.959 1.151,2.471 1.837,2.471 L4.881,2.471 L4.881,0.196 L1.837,0.196 L1.837,0.195 Z" id="Shape" fill="url(#linearGradient-8)"></path>
                <path d="M9.979,0.195 L6.936,0.195 L6.936,2.47 L9.979,2.47 C10.666,2.47 11.226,1.958 11.226,1.331 C11.226,0.707 10.665,0.195 9.979,0.195 Z" id="Shape" fill="url(#linearGradient-9)"></path>
            </g>
            <g transform="translate(5.000000, 6.000000)" fill="#FFFFFF" id="Shape">
                <path d="M13.262,1.001 L13.262,3.445 L12.292,3.445 C12.121,3.445 11.991,3.436 11.9,3.422 C11.774,3.401 11.669,3.363 11.583,3.308 C11.498,3.251 11.43,3.173 11.377,3.072 C11.325,2.971 11.3,2.859 11.3,2.738 C11.3,2.531 11.369,2.355 11.508,2.211 C11.647,2.067 11.899,1.996 12.263,1.996 L12.922,1.996 L12.922,1.001 L13.262,1.001 Z M12.922,2.284 L12.257,2.284 C12.037,2.284 11.881,2.322 11.788,2.4 C11.696,2.478 11.65,2.588 11.65,2.728 C11.65,2.831 11.676,2.918 11.731,2.991 C11.786,3.064 11.857,3.112 11.946,3.136 C12.004,3.151 12.109,3.157 12.263,3.157 L12.921,3.157 L12.921,2.284 L12.922,2.284 Z"></path>
                <path d="M10.97,2.192 C10.97,2.597 10.854,2.915 10.625,3.144 C10.396,3.373 10.101,3.489 9.738,3.489 C9.5,3.489 9.286,3.435 9.095,3.327 C8.905,3.22 8.759,3.069 8.658,2.876 C8.558,2.684 8.509,2.465 8.509,2.221 C8.509,1.973 8.562,1.751 8.667,1.555 C8.771,1.36 8.921,1.211 9.114,1.112 C9.306,1.01 9.515,0.961 9.738,0.961 C9.98,0.961 10.197,1.017 10.387,1.127 C10.577,1.239 10.722,1.391 10.821,1.583 C10.92,1.774 10.97,1.977 10.97,2.192 Z M10.618,2.187 C10.618,1.892 10.535,1.66 10.369,1.491 C10.202,1.321 9.993,1.237 9.741,1.237 C9.485,1.237 9.274,1.322 9.108,1.493 C8.943,1.665 8.86,1.907 8.86,2.222 C8.86,2.42 8.896,2.594 8.966,2.743 C9.037,2.89 9.141,3.007 9.277,3.088 C9.413,3.17 9.566,3.211 9.736,3.211 C9.976,3.211 10.184,3.132 10.358,2.975 C10.532,2.818 10.618,2.554 10.618,2.187 Z"></path>
                <polygon points="8.085 1.001 8.085 3.445 7.745 3.445 7.745 1.29 6.478 1.29 6.478 1.001"></polygon>
                <polygon points="6.016 1.001 6.016 3.445 5.675 3.445 5.675 1.001"></polygon>
                <path d="M3.239,1.858 L2.899,1.777 C2.97,1.511 3.098,1.308 3.284,1.169 C3.47,1.03 3.696,0.96 3.965,0.96 C4.241,0.96 4.467,1.014 4.641,1.121 C4.815,1.227 4.947,1.384 5.037,1.587 C5.127,1.79 5.173,2.009 5.173,2.242 C5.173,2.497 5.122,2.719 5.02,2.908 C4.918,3.097 4.772,3.241 4.582,3.34 C4.394,3.438 4.186,3.487 3.959,3.487 C3.701,3.487 3.485,3.425 3.31,3.3 C3.135,3.175 3.012,3 2.944,2.775 L3.279,2.701 C3.339,2.879 3.425,3.008 3.539,3.089 C3.653,3.17 3.795,3.211 3.967,3.211 C4.165,3.211 4.33,3.166 4.462,3.075 C4.595,2.985 4.689,2.865 4.742,2.713 C4.796,2.562 4.823,2.405 4.823,2.243 C4.823,2.036 4.791,1.854 4.727,1.699 C4.663,1.544 4.564,1.428 4.429,1.351 C4.295,1.275 4.15,1.237 3.992,1.237 C3.802,1.237 3.639,1.289 3.508,1.393 C3.377,1.497 3.286,1.653 3.239,1.858 Z"></path>
                <polygon points="2.474 1.001 2.474 3.445 0.614 3.445 0.614 3.157 2.134 3.157 2.134 2.408 0.71 2.408 0.71 2.122 2.133 2.122 2.133 1.29 0.554 1.29 0.554 1.001"></polygon>
            </g>
            <g transform="translate(5.000000, 40.000000)" fill="#FFFFFF" id="Shape">
                <path d="M0.48,3.18 L0.48,0.737 L1.45,0.737 C1.621,0.737 1.752,0.745 1.842,0.76 C1.968,0.78 2.073,0.817 2.159,0.873 C2.244,0.93 2.312,1.008 2.365,1.109 C2.417,1.211 2.443,1.322 2.443,1.443 C2.443,1.65 2.373,1.826 2.234,1.97 C2.094,2.113 1.843,2.185 1.479,2.185 L0.82,2.185 L0.82,3.179 L0.48,3.179 L0.48,3.18 Z M0.82,1.898 L1.485,1.898 C1.705,1.898 1.861,1.859 1.954,1.781 C2.046,1.703 2.093,1.593 2.093,1.453 C2.093,1.351 2.065,1.264 2.011,1.191 C1.956,1.117 1.885,1.07 1.796,1.046 C1.738,1.03 1.633,1.023 1.479,1.023 L0.82,1.023 L0.82,1.898 Z"></path>
                <path d="M2.773,1.99 C2.773,1.584 2.887,1.267 3.117,1.037 C3.346,0.807 3.642,0.693 4.005,0.693 C4.242,0.693 4.456,0.746 4.647,0.853 C4.837,0.962 4.983,1.113 5.083,1.304 C5.184,1.497 5.233,1.716 5.233,1.96 C5.233,2.208 5.18,2.431 5.075,2.626 C4.971,2.821 4.821,2.968 4.628,3.069 C4.436,3.171 4.228,3.221 4.004,3.221 C3.762,3.221 3.546,3.164 3.355,3.053 C3.165,2.942 3.02,2.791 2.921,2.598 C2.822,2.408 2.773,2.205 2.773,1.99 Z M3.124,1.994 C3.124,2.289 3.207,2.521 3.374,2.691 C3.541,2.861 3.749,2.945 4.001,2.945 C4.257,2.945 4.468,2.859 4.634,2.687 C4.799,2.517 4.882,2.273 4.882,1.958 C4.882,1.761 4.847,1.585 4.776,1.438 C4.706,1.29 4.602,1.174 4.465,1.092 C4.329,1.01 4.176,0.969 4.006,0.969 C3.766,0.969 3.559,1.049 3.384,1.205 C3.211,1.363 3.124,1.627 3.124,1.994 Z"></path>
                <polygon points="5.657 3.18 5.657 0.737 5.997 0.737 5.997 2.891 7.264 2.891 7.264 3.18 5.657 3.18"></polygon>
                <polygon points="7.728 3.18 7.728 0.737 8.068 0.737 8.068 3.18"></polygon>
                <path d="M10.502,2.322 L10.843,2.404 C10.772,2.67 10.644,2.873 10.458,3.011 C10.272,3.152 10.046,3.222 9.778,3.222 C9.501,3.222 9.275,3.167 9.102,3.06 C8.928,2.953 8.795,2.796 8.705,2.595 C8.614,2.39 8.569,2.173 8.569,1.939 C8.569,1.685 8.62,1.462 8.722,1.273 C8.824,1.084 8.97,0.941 9.16,0.841 C9.348,0.743 9.556,0.693 9.783,0.693 C10.041,0.693 10.257,0.755 10.432,0.881 C10.607,1.006 10.73,1.18 10.798,1.406 L10.464,1.48 C10.403,1.302 10.317,1.173 10.204,1.091 C10.09,1.011 9.947,0.97 9.775,0.97 C9.578,0.97 9.412,1.015 9.28,1.105 C9.147,1.195 9.053,1.316 9,1.468 C8.947,1.62 8.919,1.777 8.919,1.937 C8.919,2.146 8.951,2.328 9.015,2.482 C9.079,2.636 9.178,2.753 9.313,2.83 C9.447,2.906 9.593,2.945 9.75,2.945 C9.94,2.945 10.103,2.892 10.234,2.789 C10.366,2.684 10.455,2.529 10.502,2.322 Z"></path>
                <polygon points="11.269 3.18 11.269 0.737 13.129 0.737 13.129 1.024 11.609 1.024 11.609 1.774 13.032 1.774 13.032 2.059 11.609 2.059 11.609 2.891 13.188 2.891 13.188 3.18"></polygon>
            </g>
            <g transform="translate(9.000000, 29.000000)" fill="#000000" id="Shape">
                <path d="M0.496,2.826 L0.8,2.799 C0.825,2.936 0.874,3.033 0.946,3.094 C1.019,3.156 1.112,3.186 1.225,3.186 C1.322,3.186 1.408,3.166 1.48,3.124 C1.553,3.081 1.614,3.024 1.66,2.954 C1.707,2.884 1.747,2.788 1.778,2.669 C1.809,2.548 1.825,2.427 1.825,2.302 C1.825,2.288 1.825,2.269 1.823,2.241 C1.761,2.337 1.675,2.415 1.565,2.475 C1.456,2.534 1.336,2.563 1.21,2.563 C0.997,2.563 0.817,2.491 0.669,2.342 C0.522,2.196 0.448,2.002 0.448,1.762 C0.448,1.514 0.525,1.315 0.678,1.164 C0.832,1.012 1.025,0.937 1.256,0.937 C1.424,0.937 1.576,0.98 1.715,1.064 C1.854,1.15 1.959,1.273 2.03,1.431 C2.102,1.589 2.138,1.818 2.138,2.119 C2.138,2.431 2.103,2.68 2.031,2.865 C1.96,3.051 1.854,3.191 1.713,3.287 C1.572,3.385 1.407,3.432 1.218,3.432 C1.017,3.432 0.853,3.379 0.725,3.274 C0.599,3.168 0.521,3.018 0.496,2.826 Z M1.789,1.746 C1.789,1.574 1.74,1.437 1.644,1.338 C1.547,1.236 1.431,1.186 1.295,1.186 C1.154,1.186 1.032,1.241 0.928,1.35 C0.824,1.457 0.773,1.6 0.773,1.772 C0.773,1.928 0.822,2.055 0.92,2.153 C1.019,2.249 1.141,2.298 1.286,2.298 C1.432,2.298 1.553,2.249 1.646,2.153 C1.742,2.055 1.789,1.92 1.789,1.746 Z"></path>
                <path d="M3.636,3.391 L3.32,3.391 L3.32,1.479 C3.244,1.549 3.144,1.618 3.021,1.686 C2.897,1.754 2.787,1.807 2.688,1.84 L2.688,1.551 C2.865,1.471 3.019,1.377 3.152,1.264 C3.284,1.151 3.378,1.043 3.432,0.938 L3.635,0.938 L3.635,3.391 L3.636,3.391 Z"></path>
                <path d="M5.367,3.391 L5.052,3.391 L5.052,1.479 C4.976,1.549 4.876,1.618 4.753,1.686 C4.63,1.754 4.519,1.807 4.42,1.84 L4.42,1.551 C4.597,1.471 4.751,1.377 4.884,1.264 C5.016,1.151 5.11,1.043 5.164,0.938 L5.367,0.938 L5.367,3.391 Z"></path>
            </g>
        </g>
    </g>
</svg>