<?xml version="1.0" encoding="UTF-8"?>
<svg width="56px" height="56px" viewBox="0 0 56 56" version="1.1" xmlns="http://www.w3.org/2000/svg" xmlns:xlink="http://www.w3.org/1999/xlink">
    <!-- Generator: Sketch 51.3 (57544) - http://www.bohemiancoding.com/sketch -->
    <title>Artboard</title>
    <desc>Created with Sketch.</desc>
    <defs>
        <linearGradient x1="-0.00370353224%" y1="50%" x2="99.9990741%" y2="50%" id="linearGradient-1">
            <stop stop-color="#FF0000" offset="0%"></stop>
            <stop stop-color="#BA0000" offset="100%"></stop>
        </linearGradient>
        <path d="M22.801,36.113 C22.801,33.441 22.528,31.123 22.127,29.974 L22.127,17.523 C22.527,16.723 22.801,15.112 22.801,13.255 C22.801,11.232 22.477,9.502 22.018,8.794 C21.339,5.407 17.659,0 14.992,0 L9.007,0 C6.341,0 2.66,5.406 1.983,8.793 C1.524,9.501 1.2,11.231 1.2,13.254 C1.2,15.111 1.473,16.722 1.874,17.522 L1.874,29.974 C1.474,31.122 1.2,33.441 1.2,36.113 C1.2,38.785 1.473,41.103 1.874,42.252 C1.891,45.416 4.295,48 7.23,48 L16.769,48 C19.705,48 22.109,45.416 22.126,42.252 C22.527,41.104 22.801,38.785 22.801,36.113 Z" id="path-2"></path>
        <filter x="-27.8%" y="-12.5%" width="155.6%" height="125.0%" filterUnits="objectBoundingBox" id="filter-3">
            <feOffset dx="0" dy="0" in="SourceAlpha" result="shadowOffsetOuter1"></feOffset>
            <feGaussianBlur stdDeviation="2" in="shadowOffsetOuter1" result="shadowBlurOuter1"></feGaussianBlur>
            <feColorMatrix values="0 0 0 0 0   0 0 0 0 0   0 0 0 0 0  0 0 0 0.5 0" type="matrix" in="shadowBlurOuter1"></feColorMatrix>
        </filter>
        <linearGradient x1="-0.0167672703%" y1="49.9959064%" x2="99.9966465%" y2="49.9959064%" id="linearGradient-4">
            <stop stop-color="#FF0000" offset="0%"></stop>
            <stop stop-color="#BA0000" offset="100%"></stop>
        </linearGradient>
        <linearGradient x1="0.00335345406%" y1="49.9959064%" x2="100.020121%" y2="49.9959064%" id="linearGradient-5">
            <stop stop-color="#FF0000" offset="0%"></stop>
            <stop stop-color="#BA0000" offset="100%"></stop>
        </linearGradient>
    </defs>
    <g id="Artboard" stroke="none" stroke-width="1" fill="none" fill-rule="evenodd">
        <g id="car-sports">
            <g id="Group" transform="translate(16.000000, 4.000000)" fill-rule="nonzero">
                <g id="Shape">
                    <use fill="black" fill-opacity="1" filter="url(#filter-3)" xlink:href="#path-2"></use>
                    <use fill="url(#linearGradient-1)" xlink:href="#path-2"></use>
                </g>
                <path d="M19.775,15.187 C19.775,15.187 18.706,13.699 12,13.699 C5.294,13.699 4.225,15.187 4.225,15.187 L6.577,24.258 L17.425,24.258 L19.775,15.187 Z" id="Shape" fill="#000000"></path>
                <path d="M4.225,40.762 C4.225,40.762 5.294,43.508 12,43.508 C18.706,43.508 19.775,40.762 19.775,40.762 L17.423,37.588 L6.576,37.588 L4.225,40.762 Z" id="Shape" fill="#000000"></path>
                <g transform="translate(5.000000, 0.000000)" fill="#B5B5B5" id="Shape">
                    <path d="M1.13,13.255 C1.13,11.232 1.306,9.502 1.556,8.794 C1.924,5.407 3.925,0 5.373,0 L5.125,0 C3.455,0 1.149,5.406 0.726,8.793 C0.438,9.501 0.236,11.231 0.236,13.254 C0.236,13.708 0.246,14.147 0.265,14.563 C0.503,14.469 0.794,14.372 1.146,14.278 C1.136,13.949 1.13,13.606 1.13,13.255 Z"></path>
                    <path d="M13.274,8.793 C12.85,5.407 10.544,0 8.874,0 L8.626,0 C10.075,0 12.076,5.406 12.444,8.793 C12.694,9.501 12.87,11.231 12.87,13.254 C12.87,13.606 12.864,13.948 12.854,14.278 C13.205,14.371 13.497,14.469 13.735,14.563 C13.755,14.147 13.764,13.708 13.764,13.254 C13.765,11.232 13.562,9.502 13.274,8.793 Z"></path>
                </g>
                <path d="M18.273,42.213 C17.69,43.938 16.499,45.127 15.132,45.127 L8.865,45.127 C7.498,45.127 6.308,43.938 5.725,42.213 C4.935,41.75 4.537,41.274 4.355,41 C4.577,43.646 6.305,45.725 8.387,45.725 L15.609,45.725 C17.692,45.725 19.421,43.647 19.642,41 C19.462,41.275 19.063,41.75 18.273,42.213 Z" id="Shape" fill="#B5B5B5"></path>
                <polygon id="Shape" fill="#000000" points="19.775 32.412 19.775 18.061 17.883 24.748 17.883 32.412"></polygon>
                <polygon id="Shape" fill="#000000" points="17.883 33.414 17.883 36.869 19.775 38.217 19.775 33.414"></polygon>
                <polygon id="Shape" fill="#000000" points="4.224 33.414 4.224 38.217 6.117 36.869 6.117 33.414"></polygon>
                <polygon id="Shape" fill="#000000" points="6.117 32.412 6.117 24.748 4.224 18.061 4.224 32.412"></polygon>
                <path d="M16.799,24.258 C17.126,24.087 17.313,24 17.313,24 C17.313,24 5.59,21.601 5.59,14.75 C5.59,14.648 5.592,14.545 5.597,14.442 C4.492,14.814 4.225,15.186 4.225,15.186 L6.577,24.257 L16.799,24.257 L16.799,24.258 Z" id="Shape" fill="#363636"></path>
                <path d="M3.213,17.015 L0.337,18.059 L0.231,17.615 C0.231,17.615 0.374,16.438 1.422,16.057 C2.471,15.676 3.108,16.571 3.108,16.571 L3.213,17.015 Z" id="Shape" fill="url(#linearGradient-4)"></path>
                <path d="M20.786,17.015 L23.663,18.059 L23.768,17.615 C23.768,17.615 23.625,16.438 22.577,16.057 C21.528,15.676 20.893,16.571 20.893,16.571 L20.786,17.015 Z" id="Shape" fill="url(#linearGradient-5)"></path>
                <g transform="translate(3.000000, 3.000000)" fill="#FFFFFF" id="Shape">
                    <path d="M3.021,0.144 C2.534,-0.142 1.594,0.706 0.923,2.04 C0.252,3.373 0.103,4.686 0.591,4.973 C1.079,5.258 2.018,4.41 2.69,3.077 C3.361,1.743 3.51,0.43 3.021,0.144 Z"></path>
                    <path d="M14.978,0.144 C15.466,-0.142 16.406,0.706 17.077,2.04 C17.748,3.373 17.896,4.686 17.408,4.973 C16.92,5.257 15.98,4.409 15.31,3.076 C14.639,1.743 14.49,0.43 14.978,0.144 Z"></path>
                </g>
                <g transform="translate(3.000000, 45.000000)" fill="#FF0000" id="Shape">
                    <g>
                        <path d="M3.17,1.822 C3.034,2.193 2.41,2.275 1.777,2.006 C1.144,1.735 0.742,1.215 0.879,0.842 C1.015,0.473 1.639,0.391 2.272,0.662 C2.904,0.932 3.307,1.451 3.17,1.822 Z"></path>
                        <path d="M6.149,2.102 C6.137,2.5 5.576,2.803 4.895,2.78 C4.215,2.757 3.673,2.413 3.686,2.012 C3.698,1.614 4.259,1.311 4.939,1.334 C5.62,1.357 6.162,1.701 6.149,2.102 Z"></path>
                    </g>
                    <g transform="translate(11.000000, 0.000000)">
                        <path d="M3.829,1.822 C3.966,2.193 4.59,2.275 5.222,2.006 C5.855,1.735 6.257,1.215 6.121,0.842 C5.984,0.473 5.361,0.391 4.728,0.662 C4.096,0.932 3.693,1.451 3.829,1.822 Z"></path>
                        <path d="M0.851,2.102 C0.863,2.5 1.424,2.803 2.104,2.78 C2.785,2.757 3.326,2.413 3.314,2.012 C3.302,1.614 2.741,1.311 2.061,1.334 C1.38,1.357 0.838,1.701 0.851,2.102 Z"></path>
                    </g>
                </g>
            </g>
            <rect id="Rectangle-path" x="0" y="0" width="56" height="56"></rect>
        </g>
    </g>
</svg>